<svg xmlns="http://www.w3.org/2000/svg" id="SvgjsSvg610292" width="4096" height="4096" version="1.1" xmlns:xlink="http://www.w3.org/1999/xlink" xmlns:svgjs="http://svgjs.com/svgjs"><defs id="SvgjsDefs610293"></defs><g id="SvgjsG610294" transform="translate(328, 328) scale(34.4)" opacity="1"><defs id="SvgjsDefs151598"></defs><g id="SvgjsG151599" transform="scale(0.35100035100035104)" opacity="1"><g id="SvgjsG151600" class="JZ6yDSoao" transform="translate(0, 0) scale(0.8766153846153846)" light-content="false" non-strokable="false" fill="#33539c"><path d="M297.9 1.1l26 296.9L27 324 1.1 27.1l296.8-26m1-1.1L0 26.1 26.1 325 325 298.9 298.9 0z"></path><path d="M27.1 1.1l296.9 26L298 324 1.1 298l26-296.9m-1-1.1L0 298.9 298.9 325 325 26.1 26.1 0z"></path></g><g id="SvgjsG151601" class="text" transform="translate(138.82164339910634, 169.7520397475932) scale(1)" light-content="false" fill="#33539c"><path d="M-41.36 -94.61L-62.77 -93.7C-62.28 -89.43 -62.07 -85.37 -62.13 -81.53C-62.19 -77.68 -62.4 -74.05 -62.77 -70.64L-71.37 0L-45.75 0L-36.78 -74.48C-36.3 -78.14 -36.3 -81.59 -36.78 -84.82C-37.27 -88.05 -38.8 -91.32 -41.36 -94.61ZM-4.76 -67.16L-12.99 0L12.63 0L20.86 -67.53C21.47 -72.53 21.32 -76.86 20.4 -80.52C19.49 -84.18 18.03 -87.23 16.01 -89.67C14 -92.11 11.59 -93.94 8.78 -95.16C5.98 -96.38 2.99 -96.99 -0.18 -96.99C-4.45 -96.99 -8.91 -96.38 -13.54 -95.16C-18.18 -93.94 -23.97 -91.99 -30.93 -89.3C-30.32 -87.6 -29.62 -85.98 -28.82 -84.45C-28.03 -82.93 -27.15 -81.56 -26.17 -80.34C-25.19 -79.12 -24.09 -78.17 -22.87 -77.5C-21.66 -76.83 -20.31 -76.56 -18.85 -76.68C-17.38 -76.8 -16.07 -76.98 -14.91 -77.23C-13.76 -77.47 -12.63 -77.59 -11.53 -77.59C-8.36 -77.59 -6.34 -76.62 -5.49 -74.66C-4.64 -72.71 -4.39 -70.21 -4.76 -67.16ZM53.62 -67.16L45.38 0L70.82 0L79.06 -67.53C79.67 -72.53 79.42 -76.86 78.32 -80.52C77.23 -84.18 75.61 -87.23 73.47 -89.67C71.34 -92.11 68.81 -93.94 65.88 -95.16C62.95 -96.38 59.9 -96.99 56.73 -96.99C52.46 -96.99 47.92 -96.38 43.1 -95.16C38.28 -93.94 32.33 -91.93 25.25 -89.12C25.86 -87.41 26.6 -85.8 27.45 -84.27C28.3 -82.75 29.25 -81.37 30.29 -80.15C31.32 -78.93 32.45 -77.99 33.67 -77.32C34.89 -76.65 36.23 -76.37 37.7 -76.49C39.28 -76.61 40.75 -76.83 42.09 -77.13C43.43 -77.44 44.65 -77.59 45.75 -77.59C49.17 -77.59 51.42 -76.62 52.52 -74.66C53.62 -72.71 53.99 -70.21 53.62 -67.16Z"></path></g><g id="SvgjsG151602" class="text" transform="translate(141.081539806774, 235.6486151040425) scale(1)" light-content="false" fill="#33539c"><path d="M-87.68 -20.68L-92.36 -20.48C-92.25 -19.55 -92.21 -18.66 -92.22 -17.82C-92.23 -16.98 -92.28 -16.19 -92.36 -15.44L-94.24 0L-88.64 0L-86.68 -16.28C-86.57 -17.08 -86.57 -17.83 -86.68 -18.54C-86.79 -19.25 -87.12 -19.96 -87.68 -20.68ZM-79.68 -14.68L-81.48 0L-75.88 0L-74.08 -14.76C-73.95 -15.85 -73.98 -16.8 -74.18 -17.6C-74.38 -18.4 -74.7 -19.07 -75.14 -19.6C-75.58 -20.13 -76.11 -20.53 -76.72 -20.8C-77.33 -21.07 -77.99 -21.2 -78.68 -21.2C-79.61 -21.2 -80.59 -21.07 -81.6 -20.8C-82.61 -20.53 -83.88 -20.11 -85.4 -19.52C-85.27 -19.15 -85.11 -18.79 -84.94 -18.46C-84.77 -18.13 -84.57 -17.83 -84.36 -17.56C-84.15 -17.29 -83.91 -17.09 -83.64 -16.94C-83.37 -16.79 -83.08 -16.73 -82.76 -16.76C-82.44 -16.79 -82.15 -16.83 -81.9 -16.88C-81.65 -16.93 -81.4 -16.96 -81.16 -16.96C-80.47 -16.96 -80.03 -16.75 -79.84 -16.32C-79.65 -15.89 -79.6 -15.35 -79.68 -14.68ZM-66.92 -14.68L-68.72 0L-63.16 0L-61.36 -14.76C-61.23 -15.85 -61.28 -16.8 -61.52 -17.6C-61.76 -18.4 -62.11 -19.07 -62.58 -19.6C-63.05 -20.13 -63.6 -20.53 -64.24 -20.8C-64.88 -21.07 -65.55 -21.2 -66.24 -21.2C-67.17 -21.2 -68.17 -21.07 -69.22 -20.8C-70.27 -20.53 -71.57 -20.09 -73.12 -19.48C-72.99 -19.11 -72.83 -18.75 -72.64 -18.42C-72.45 -18.09 -72.25 -17.79 -72.02 -17.52C-71.79 -17.25 -71.55 -17.05 -71.28 -16.9C-71.01 -16.75 -70.72 -16.69 -70.4 -16.72C-70.05 -16.75 -69.73 -16.79 -69.44 -16.86C-69.15 -16.93 -68.88 -16.96 -68.64 -16.96C-67.89 -16.96 -67.4 -16.75 -67.16 -16.32C-66.92 -15.89 -66.84 -15.35 -66.92 -14.68Z M-57.24 0L-51.64 0L-49.12 -20.68L-54.72 -20.68ZM-54.48 -26.68C-54.59 -25.75 -54.37 -24.97 -53.82 -24.34C-53.27 -23.71 -52.53 -23.4 -51.6 -23.4C-50.67 -23.4 -49.85 -23.71 -49.14 -24.34C-48.43 -24.97 -48.03 -25.75 -47.92 -26.68C-47.87 -27.16 -47.89 -27.6 -48 -28C-48.11 -28.4 -48.29 -28.75 -48.56 -29.06C-48.83 -29.37 -49.15 -29.61 -49.52 -29.78C-49.89 -29.95 -50.31 -30.04 -50.76 -30.04C-51.69 -30.04 -52.51 -29.71 -53.22 -29.06C-53.93 -28.41 -54.35 -27.61 -54.48 -26.68Z M-40.36 0L-36.68 -30.04L-42.2 -30.32L-45.92 0ZM-30.92 -13.52L-23.64 -20.4L-29.76 -20.68L-33.88 -16.32C-35 -15.12 -35.92 -13.76 -36.64 -12.24C-37.36 -10.72 -37.68 -9.04 -37.6 -7.2L-35.16 -9.48L-34.52 -10.28L-34.36 -9.32L-30.76 0L-24.6 0Z M-1.88 -5.04L-0.04 -19.96C-1 -20.2 -1.86 -20.4 -2.62 -20.56C-3.38 -20.72 -4.08 -20.85 -4.72 -20.94C-5.36 -21.03 -5.95 -21.09 -6.5 -21.12C-7.05 -21.15 -7.6 -21.16 -8.16 -21.16C-9.95 -21.16 -11.58 -20.85 -13.06 -20.24C-14.54 -19.63 -15.83 -18.8 -16.92 -17.76C-18.01 -16.72 -18.9 -15.5 -19.58 -14.1C-20.26 -12.7 -20.69 -11.2 -20.88 -9.6C-21.04 -8.4 -21 -7.19 -20.76 -5.98C-20.52 -4.77 -20.11 -3.68 -19.52 -2.72C-18.93 -1.76 -18.17 -0.99 -17.24 -0.4C-16.31 0.19 -15.2 0.44 -13.92 0.36C-13.23 0.31 -12.47 0.13 -11.66 -0.16C-10.85 -0.45 -10.04 -0.83 -9.24 -1.28C-9.67 -2.03 -10.09 -2.66 -10.52 -3.18C-10.95 -3.7 -11.55 -3.93 -12.32 -3.88C-13.01 -3.83 -13.55 -3.97 -13.92 -4.32C-14.29 -4.67 -14.57 -5.13 -14.76 -5.7C-14.95 -6.27 -15.04 -6.91 -15.04 -7.6C-15.04 -8.29 -15 -8.96 -14.92 -9.6C-14.79 -10.69 -14.55 -11.7 -14.2 -12.62C-13.85 -13.54 -13.41 -14.33 -12.86 -14.98C-12.31 -15.63 -11.67 -16.14 -10.92 -16.5C-10.17 -16.86 -9.35 -17.04 -8.44 -17.04C-8.15 -17.04 -7.78 -17.02 -7.34 -16.98C-6.9 -16.94 -6.41 -16.85 -5.88 -16.72L-7.4 -4.2C-7.45 -3.72 -7.45 -3.25 -7.4 -2.78C-7.35 -2.31 -7.25 -1.89 -7.12 -1.5C-6.99 -1.11 -6.83 -0.79 -6.66 -0.52C-6.49 -0.25 -6.32 -0.08 -6.16 0L-1.88 0C-2.01 -0.93 -2.07 -1.82 -2.06 -2.66C-2.05 -3.5 -1.99 -4.29 -1.88 -5.04Z M9.28 -20.68L4.6 -20.48C4.79 -18.67 4.8 -16.99 4.64 -15.44L2.76 0L8.36 0L10.32 -16.28C10.43 -17.08 10.42 -17.83 10.3 -18.54C10.18 -19.25 9.84 -19.96 9.28 -20.68ZM17.48 -14.68L15.68 0L21.24 0L23.04 -14.76C23.17 -15.85 23.13 -16.8 22.9 -17.6C22.67 -18.4 22.33 -19.07 21.88 -19.6C21.43 -20.13 20.89 -20.53 20.26 -20.8C19.63 -21.07 18.97 -21.2 18.28 -21.2C17.35 -21.2 16.37 -21.07 15.34 -20.8C14.31 -20.53 13.09 -20.05 11.68 -19.36L12.16 -18.4C12.32 -18.08 12.5 -17.79 12.7 -17.54C12.9 -17.29 13.12 -17.08 13.36 -16.92C13.6 -16.76 13.88 -16.69 14.2 -16.72C14.57 -16.75 14.89 -16.79 15.14 -16.86C15.39 -16.93 15.65 -16.96 15.92 -16.96C16.61 -16.96 17.07 -16.75 17.28 -16.32C17.49 -15.89 17.56 -15.35 17.48 -14.68Z M34.12 0.52C34.89 0.52 35.72 0.35 36.6 0C37.48 -0.35 38.49 -0.99 39.64 -1.92L40.44 -2.8L40.52 -1.88C40.63 -1.51 40.77 -1.15 40.96 -0.8C41.15 -0.45 41.4 -0.19 41.72 0L46.04 -0.2C45.91 -1.13 45.85 -2.02 45.86 -2.86C45.87 -3.7 45.93 -4.49 46.04 -5.24L49.08 -30.04L43.56 -30.32L40.6 -6.4C39.64 -5.44 38.77 -4.73 37.98 -4.28C37.19 -3.83 36.41 -3.6 35.64 -3.6C34.97 -3.6 34.4 -3.79 33.92 -4.16C33.44 -4.53 33.05 -5.03 32.76 -5.66C32.47 -6.29 32.27 -7.01 32.18 -7.84C32.09 -8.67 32.11 -9.55 32.24 -10.48C32.35 -11.41 32.53 -12.28 32.78 -13.08C33.03 -13.88 33.37 -14.57 33.78 -15.14C34.19 -15.71 34.71 -16.17 35.32 -16.52C35.93 -16.87 36.65 -17.07 37.48 -17.12C38.15 -17.17 38.76 -17.49 39.32 -18.06C39.88 -18.63 40.4 -19.39 40.88 -20.32C39.87 -20.61 39.04 -20.81 38.4 -20.9C37.76 -20.99 37.09 -21.04 36.4 -21.04C35.25 -21.04 34.11 -20.75 32.98 -20.18C31.85 -19.61 30.81 -18.84 29.88 -17.88C28.95 -16.92 28.16 -15.8 27.52 -14.52C26.88 -13.24 26.48 -11.89 26.32 -10.48C26.11 -8.91 26.13 -7.45 26.38 -6.1C26.63 -4.75 27.09 -3.59 27.74 -2.6C28.39 -1.61 29.26 -0.85 30.34 -0.3C31.42 0.25 32.68 0.52 34.12 0.52Z M51.44 0L57 0L60.68 -30.04L55.16 -30.32ZM66.16 -14.68L64.36 0L69.92 0L71.72 -14.76C71.85 -15.85 71.81 -16.8 71.58 -17.6C71.35 -18.4 71.01 -19.07 70.56 -19.6C70.11 -20.13 69.57 -20.53 68.94 -20.8C68.31 -21.07 67.65 -21.2 66.96 -21.2C66.21 -21.2 65.35 -21.09 64.38 -20.88C63.41 -20.67 62.21 -20.19 60.8 -19.44C60.96 -19.07 61.12 -18.72 61.28 -18.4C61.44 -18.08 61.62 -17.79 61.82 -17.54C62.02 -17.29 62.24 -17.09 62.48 -16.94C62.72 -16.79 62.99 -16.73 63.28 -16.76C63.63 -16.79 63.89 -16.83 64.06 -16.88C64.23 -16.93 64.44 -16.96 64.68 -16.96C65.29 -16.96 65.71 -16.75 65.94 -16.32C66.17 -15.89 66.24 -15.35 66.16 -14.68Z M96.88 -10.36C97.07 -11.96 96.99 -13.42 96.64 -14.74C96.29 -16.06 95.71 -17.2 94.88 -18.16C94.05 -19.12 93.02 -19.87 91.78 -20.4C90.54 -20.93 89.12 -21.2 87.52 -21.2C86.37 -21.2 85.14 -20.99 83.82 -20.56C82.5 -20.13 81.26 -19.48 80.1 -18.6C78.94 -17.72 77.93 -16.59 77.08 -15.22C76.23 -13.85 75.68 -12.23 75.44 -10.36C75.23 -8.63 75.33 -7.08 75.76 -5.72C76.19 -4.36 76.84 -3.22 77.72 -2.3C78.6 -1.38 79.65 -0.68 80.88 -0.2C82.11 0.28 83.43 0.52 84.84 0.52C86.15 0.52 87.47 0.27 88.82 -0.22C90.17 -0.71 91.4 -1.43 92.52 -2.36C93.64 -3.29 94.59 -4.43 95.38 -5.78C96.17 -7.13 96.67 -8.65 96.88 -10.36ZM85.32 -3.56C83.85 -3.56 82.77 -4.19 82.06 -5.46C81.35 -6.73 81.12 -8.36 81.36 -10.36C81.47 -11.29 81.68 -12.17 82 -12.98C82.32 -13.79 82.72 -14.51 83.2 -15.12C83.68 -15.73 84.24 -16.22 84.88 -16.58C85.52 -16.94 86.23 -17.12 87 -17.12C87.77 -17.12 88.44 -16.94 89 -16.58C89.56 -16.22 90 -15.73 90.32 -15.12C90.64 -14.51 90.85 -13.79 90.94 -12.98C91.03 -12.17 91.03 -11.29 90.92 -10.36C90.81 -9.43 90.61 -8.55 90.3 -7.72C89.99 -6.89 89.6 -6.17 89.12 -5.56C88.64 -4.95 88.08 -4.46 87.44 -4.1C86.8 -3.74 86.09 -3.56 85.32 -3.56Z"></path></g></g></g></svg>